<?xml version="1.0" encoding="utf-8"?>
<!-- Generator: Adobe Illustrator 16.0.0, SVG Export Plug-In . SVG Version: 6.00 Build 0)  -->
<!DOCTYPE svg PUBLIC "-//W3C//DTD SVG 1.1//EN" "http://www.w3.org/Graphics/SVG/1.1/DTD/svg11.dtd">
<svg version="1.1" id="Layer_1" xmlns="http://www.w3.org/2000/svg" xmlns:xlink="http://www.w3.org/1999/xlink" x="0px" y="0px"
	 width="100px" height="100px" viewBox="0 0 100 100" enable-background="new 0 0 100 100" xml:space="preserve">
<path d="M71.158,48.969c-2.077-1.677-4.545-3.13-7.404-4.361c-2.86-1.229-5.982-2.403-9.369-3.522
	c-1.758-0.575-3.3-1.11-4.625-1.605c-1.326-0.495-2.437-1.022-3.331-1.582c-0.896-0.559-1.566-1.166-2.013-1.821
	c-0.448-0.655-0.671-1.429-0.671-2.324c0-0.894,0.208-1.654,0.624-2.276c0.415-0.623,0.974-1.126,1.677-1.509
	c0.702-0.384,1.518-0.663,2.444-0.839c0.927-0.175,1.917-0.264,2.971-0.264c1.022,0,2.028,0.152,3.02,0.455
	c0.99,0.304,1.933,0.688,2.828,1.15c0.895,0.463,1.732,0.982,2.516,1.557c0.782,0.575,1.493,1.135,2.133,1.678l0.432,0.383
	c0.446,0.383,0.854,0.703,1.221,0.958c0.368,0.256,0.775,0.383,1.223,0.383c0.543,0,1.086-0.271,1.63-0.815l7.332-7.812
	c0.415-0.447,0.727-0.846,0.935-1.198c0.207-0.352,0.312-0.735,0.312-1.15c0-0.415-0.216-0.911-0.647-1.486
	c-0.432-0.575-1.015-1.181-1.749-1.821c-0.735-0.639-1.59-1.301-2.564-1.989c-0.974-0.687-2.005-1.35-3.091-1.989
	c-1.693-0.926-3.395-1.685-5.104-2.276c-1.709-0.591-3.458-1.046-5.248-1.366V7.108c0-0.639-0.263-1.15-0.791-1.534
	C55.319,5.191,54.816,5,54.337,5h-9.01c-0.703,0-1.23,0.208-1.582,0.623c-0.352,0.416-0.526,0.911-0.526,1.486v6.661
	c-2.78,0.544-5.28,1.382-7.5,2.516c-2.221,1.134-4.098,2.516-5.631,4.146c-1.534,1.629-2.717,3.482-3.547,5.559
	c-0.832,2.077-1.246,4.345-1.246,6.805c0,2.812,0.479,5.36,1.438,7.644c0.958,2.285,2.396,4.378,4.313,6.278
	c1.916,1.901,4.313,3.626,7.188,5.174c2.875,1.552,6.23,2.996,10.064,4.337c0.862,0.288,1.885,0.647,3.066,1.08
	c1.183,0.431,2.316,0.949,3.403,1.557c1.085,0.607,2.004,1.302,2.755,2.084c0.751,0.784,1.127,1.67,1.127,2.661
	c0,0.894-0.137,1.742-0.407,2.539c-0.272,0.8-0.728,1.503-1.366,2.108c-0.64,0.607-1.51,1.095-2.611,1.463
	c-1.104,0.367-2.469,0.552-4.098,0.552c-1.758,0-3.434-0.305-5.032-0.912c-1.598-0.605-3.21-1.452-4.84-2.539
	c-1.087-0.735-2.054-1.479-2.9-2.229c-0.846-0.751-1.542-1.349-2.084-1.798c-0.448-0.382-0.831-0.67-1.151-0.862
	c-0.32-0.191-0.623-0.287-0.91-0.287c-0.416,0-0.958,0.238-1.63,0.719l-8.29,7.908c-0.735,0.669-1.102,1.276-1.102,1.82
	c0,0.479,0.367,1.119,1.102,1.916c0.031,0.032,0.063,0.057,0.096,0.072c0.031,0.017,0.063,0.056,0.096,0.12
	c0.031,0.032,0.063,0.057,0.096,0.071c0.031,0.017,0.063,0.057,0.095,0.12l0.144,0.144c0.51,0.543,1.205,1.264,2.084,2.157
	c0.878,0.895,1.957,1.805,3.235,2.732c2.109,1.532,4.344,2.858,6.709,3.978c2.364,1.117,4.808,1.948,7.333,2.492v6.996
	c0,1.404,0.701,2.108,2.108,2.108h9.01c1.534,0,2.3-0.704,2.3-2.108v-6.854c3.067-0.543,5.887-1.461,8.459-2.755
	c2.571-1.294,4.801-2.915,6.686-4.865c1.885-1.949,3.354-4.176,4.408-6.685c1.055-2.509,1.582-5.264,1.582-8.268
	c0-3.321-0.583-6.149-1.749-8.482C74.855,52.651,73.234,50.647,71.158,48.969z"/>
</svg>
